<?xml version="1.0" encoding="UTF-8"?>
<svg width="259px" height="247px" viewBox="0 0 259 247" version="1.1" xmlns="http://www.w3.org/2000/svg" xmlns:xlink="http://www.w3.org/1999/xlink">
    <!-- Generator: Sketch 47.1 (45422) - http://www.bohemiancoding.com/sketch -->
    <title>Group</title>
    <desc>Created with Sketch.</desc>
    <defs></defs>
    <g id="Page-1" stroke="none" stroke-width="1" fill="none" fill-rule="evenodd">
        <g id="Group">
            <path d="M123.5,4.24264069 L3,124.742641 L3,244 L244,244 L244,124.742641 L123.5,4.24264069 Z" id="Rectangle" stroke="#D8D8D8" stroke-width="6"></path>
            <rect id="Rectangle-2" fill="#D8D8D8" x="77" y="186" width="93" height="9"></rect>
            <path d="M170,135.227029 L158.772971,124 L152.40901,130.363961 L163.636039,141.59099 L152.40901,152.818019 L158.772971,159.181981 L170,147.954951 L181.227029,159.181981 L187.59099,152.818019 L176.363961,141.59099 L187.59099,130.363961 L181.227029,124 L170,135.227029 Z" id="Combined-Shape" fill="#D8D8D8"></path>
            <path d="M70.2270292,141.59099 L59,152.818019 L65.363961,159.181981 L76.5909903,147.954951 L87.8180195,159.181981 L94.1819805,152.818019 L82.9549513,141.59099 L94.1819805,130.363961 L87.8180195,124 L76.5909903,135.227029 L65.363961,124 L59,130.363961 L70.2270292,141.59099 Z" id="Combined-Shape" fill="#D8D8D8"></path>
            <path d="M232.31948,161.444898 C246.678884,161.444898 258.31948,149.804302 258.31948,135.444898 C258.31948,125.871963 249.652814,112.667812 232.31948,95.8324455 C214.986147,112.667812 206.31948,125.871963 206.31948,135.444898 C206.31948,149.804302 217.960077,161.444898 232.31948,161.444898 Z" id="Oval" fill="#4A90E2"></path>
        </g>
    </g>
</svg>