<?xml version="1.0" encoding="UTF-8"?>
<svg width="288px" height="247px" viewBox="0 0 288 247" version="1.1" xmlns="http://www.w3.org/2000/svg" xmlns:xlink="http://www.w3.org/1999/xlink">
    <!-- Generator: Sketch 47.1 (45422) - http://www.bohemiancoding.com/sketch -->
    <title>Group 2</title>
    <desc>Created with Sketch.</desc>
    <defs></defs>
    <g id="Page-1" stroke="none" stroke-width="1" fill="none" fill-rule="evenodd">
        <g id="Group-2">
            <g id="Group-Copy">
                <path d="M123.5,4.24264069 L3,124.742641 L3,244 L244,244 L244,124.742641 L123.5,4.24264069 Z" id="Rectangle" stroke="#D8D8D8" stroke-width="6"></path>
                <rect id="Rectangle-2" fill="#D8D8D8" x="77" y="186" width="93" height="9"></rect>
                <path d="M170,135.227029 L158.772971,124 L152.40901,130.363961 L163.636039,141.59099 L152.40901,152.818019 L158.772971,159.181981 L170,147.954951 L181.227029,159.181981 L187.59099,152.818019 L176.363961,141.59099 L187.59099,130.363961 L181.227029,124 L170,135.227029 Z" id="Combined-Shape" fill="#D8D8D8"></path>
                <path d="M70.2270292,141.59099 L59,152.818019 L65.363961,159.181981 L76.5909903,147.954951 L87.8180195,159.181981 L94.1819805,152.818019 L82.9549513,141.59099 L94.1819805,130.363961 L87.8180195,124 L76.5909903,135.227029 L65.363961,124 L59,130.363961 L70.2270292,141.59099 Z" id="Combined-Shape" fill="#D8D8D8"></path>
            </g>
            <path d="M251.484228,86.1788957 L286.636539,148.517655 L286.636539,148.517655 C287.721629,150.441942 287.041325,152.881522 285.117039,153.966611 C284.517421,154.304731 283.840691,154.482383 283.152311,154.482383 L212.847689,154.482383 L212.847689,154.482383 C210.63855,154.482383 208.847689,152.691522 208.847689,150.482383 C208.847689,149.794003 209.025341,149.117273 209.363461,148.517655 L244.515772,86.1788957 L244.515772,86.1788957 C245.600861,84.2546096 248.040441,83.5743059 249.964727,84.6593949 C250.600345,85.0178145 251.125809,85.5432779 251.484228,86.1788957 Z" id="Rectangle-3" fill="#FF5656"></path>
            <text id="!" font-family="NotoSans, Noto Sans" font-size="46" font-weight="normal" fill="#FFFFFF">
                <tspan x="239" y="141">!</tspan>
            </text>
        </g>
    </g>
</svg>