<?xml version="1.0" encoding="UTF-8"?>
<svg width="323px" height="174px" viewBox="0 0 323 174" version="1.1" xmlns="http://www.w3.org/2000/svg" xmlns:xlink="http://www.w3.org/1999/xlink">
    <!-- Generator: Sketch 47.1 (45422) - http://www.bohemiancoding.com/sketch -->
    <title>KeyLogo</title>
    <desc>Created with Sketch.</desc>
    <defs>
        <linearGradient x1="50%" y1="0%" x2="50%" y2="100%" id="linearGradient-1">
            <stop stop-color="#FFEB00" offset="0%"></stop>
            <stop stop-color="#FFD200" offset="100%"></stop>
        </linearGradient>
    </defs>
    <g id="Page-1" stroke="none" stroke-width="1" fill="none" fill-rule="evenodd">
        <g id="KeyLogo" transform="translate(2.000000, 2.000000)">
            <path d="M183.765648,78.0618281 C218.824324,88.4306949 244.404921,120.876746 244.404921,159.297465 C244.404921,206.07735 206.48233,243.99994 159.702445,243.99994 C112.922559,243.99994 74.9999691,206.07735 74.9999691,159.297465 C74.9999691,121.583519 99.6480795,89.6264474 133.714185,78.6563659 L133.714185,-48.5351311 L158.739976,-73.6342839 L183.633423,-48.7408367 L197.241042,-35.4971428 L197.241042,-12.3924902 L183.765648,1.41911282 L197.241042,16.5651424 L183.633423,30.1134806 L206.03379,30.1134806 L220.060669,45.59569 L206.03379,61.876909 L183.765648,61.876909 L183.765648,40.3206194 L201.363255,40.3206194 L201.363255,50.2917014 L189.592911,50.2917014" id="Key" stroke="url(#linearGradient-1)" stroke-width="4" stroke-linecap="round" stroke-linejoin="round" transform="translate(159.702445, 85.182828) scale(1, -1) rotate(-270.000000) translate(-159.702445, -85.182828) "></path>
            <text id="eal-estatium" font-family="NotoSans, Noto Sans" font-size="38" font-weight="normal" fill="#333333">
                <tspan x="80" y="97">eal estatium</tspan>
            </text>
            <text id="R" font-family="NotoSans, Noto Sans" font-size="82" font-weight="normal" fill="#333333">
                <tspan x="36" y="109">R</tspan>
            </text>
        </g>
    </g>
</svg>