<?xml version="1.0" standalone="no"?>
<!DOCTYPE svg PUBLIC "-//W3C//DTD SVG 20010904//EN"
 "http://www.w3.org/TR/2001/REC-SVG-20010904/DTD/svg10.dtd">
<svg version="1.0" xmlns="http://www.w3.org/2000/svg"
 width="250.000000pt" height="250.000000pt" viewBox="0 0 250.000000 250.000000"
 preserveAspectRatio="xMidYMid meet">
<metadata>
Created by potrace 1.11, written by Peter Selinger 2001-2013
</metadata>
<g transform="translate(0.000000,250.000000) scale(0.100000,-0.100000)"
fill="#000000" stroke="none">
<path d="M1010 2115 c-129 -46 -293 -105 -365 -131 -71 -25 -174 -62 -228 -81
l-98 -35 6 -57 c3 -31 8 -67 10 -81 3 -14 7 -54 10 -90 7 -70 9 -91 19 -160 3
-25 8 -65 11 -90 2 -25 6 -63 9 -85 3 -22 10 -85 16 -140 7 -55 13 -111 15
-125 1 -14 6 -54 10 -90 3 -36 9 -78 11 -94 3 -15 7 -51 9 -80 2 -28 7 -71 10
-96 l6 -45 97 -52 c98 -53 186 -102 277 -153 137 -76 190 -106 290 -160 33
-18 75 -42 93 -52 l33 -20 257 143 c141 78 276 153 300 166 23 12 63 35 90 50
26 14 68 37 94 51 41 23 47 31 52 66 7 45 102 867 111 956 3 30 9 80 13 111 5
32 8 74 8 94 -1 35 -3 38 -51 55 -117 43 -652 233 -675 241 -14 4 -63 21 -109
38 -46 17 -86 31 -90 30 -3 0 -112 -38 -241 -84z"/>
</g>
</svg>
